<?xml version="1.0" encoding="UTF-8"?>
<svg width="14px" height="14px" viewBox="0 0 14 14" version="1.1" xmlns="http://www.w3.org/2000/svg" xmlns:xlink="http://www.w3.org/1999/xlink">
    <title>关闭 (1)</title>
    <g id="页面-1" stroke="none" stroke-width="1" fill="none" fill-rule="evenodd">
        <g id="import-wallet2" transform="translate(-854.000000, -235.000000)" fill="#BBC0C5" fill-rule="nonzero">
            <g id="编组-2" transform="translate(232.000000, 230.000000)">
                <g id="关闭-(1)" transform="translate(622.000000, 5.300000)">
                    <path d="M6.51145911,0.934353927 C7.26477498,0.934353927 7.99505624,1.08168246 8.68204231,1.37224383 C9.34605187,1.65308883 9.94258427,2.05535207 10.455068,2.56785027 C10.9675662,3.08033396 11.3698149,3.67686636 11.6506744,4.34087592 C11.9412358,5.02784747 12.0885643,5.75814325 12.0885643,6.51145911 C12.0885643,7.26477498 11.9412358,7.99505624 11.6506744,8.68204231 C11.3698294,9.34605187 10.9675662,9.94258427 10.455068,10.455068 C9.94258427,10.9675662 9.34605187,11.3698149 8.68204231,11.6506744 C7.99507076,11.9412358 7.26477498,12.0885643 6.51145911,12.0885643 C5.75814325,12.0885643 5.02786199,11.9412358 4.34087592,11.6506744 C3.67686636,11.3698294 3.08033396,10.9675662 2.56785027,10.455068 C2.05535207,9.94258427 1.65310336,9.34605187 1.37224383,8.68204231 C1.08168246,7.99507076 0.934353927,7.26477498 0.934353927,6.51145911 C0.934353927,5.75814325 1.08168246,5.02786199 1.37224383,4.34087592 C1.65308883,3.67686636 2.05535207,3.08033396 2.56785027,2.56785027 C3.08033396,2.05535207 3.67686636,1.65310336 4.34087592,1.37224383 C5.02786199,1.08168246 5.75814325,0.934353927 6.51145911,0.934353927 M6.51145911,0.0048363959 C2.91794434,0.0048363959 0.0048363959,2.91794434 0.0048363959,6.51145911 C0.0048363959,10.1049739 2.91794434,13.0180818 6.51145911,13.0180818 C10.1049739,13.0180818 13.0180818,10.1049739 13.0180818,6.51145911 C13.0180818,2.91794434 10.1049739,0.0048363959 6.51145911,0.0048363959 Z" id="形状"></path>
                    <path d="M7.17840247,6.52114643 L9.31880539,4.38074351 C9.50030821,4.19924068 9.50030821,3.90497577 9.31880539,3.72347294 C9.13731709,3.54197012 8.84303765,3.54197012 8.66154935,3.72347294 L6.52114643,5.86389039 L4.38074351,3.72348747 C4.19924068,3.54198465 3.90497577,3.54198465 3.72347294,3.72348747 C3.54197012,3.90499029 3.54197012,4.19925521 3.72347294,4.38075803 L5.86389039,6.52114643 L3.72348747,8.66154935 C3.54198465,8.84303765 3.54198465,9.13731709 3.72348747,9.31880539 C3.81423162,9.40956406 3.93318081,9.45493614 4.05211549,9.45493614 C4.17105016,9.45493614 4.28999936,9.40956406 4.38074351,9.31880539 L6.52114643,7.17840247 L8.66154935,9.31880539 C8.7522935,9.40956406 8.8712427,9.45493614 8.99017737,9.45493614 C9.10911204,9.45493614 9.22806124,9.40956406 9.31880539,9.31880539 C9.50030821,9.13731709 9.50030821,8.84303765 9.31880539,8.66154935 L7.17840247,6.52114643 Z" id="路径"></path>
                </g>
            </g>
        </g>
    </g>
</svg>