<?xml version="1.0" encoding="UTF-8"?>
<svg width="83px" height="83px" viewBox="0 0 83 83" version="1.1" xmlns="http://www.w3.org/2000/svg" xmlns:xlink="http://www.w3.org/1999/xlink">
    <title>编组 2</title>
    <g id="页面-1" stroke="none" stroke-width="1" fill="none" fill-rule="evenodd">
        <g id="import-wallet1" transform="translate(-471.000000, -485.000000)">
            <g id="编组-2" transform="translate(471.000000, 485.000000)">
                <g id="椭圆形-2" transform="translate(1.000000, 1.000000)">
                    <circle id="椭圆形" stroke="#043CC1" stroke-width="2" cx="40" cy="40" r="40"></circle>
                    <g id="导入" transform="translate(24.000000, 25.000000)" fill="#043CC1" fill-rule="nonzero">
                        <path d="M4.12208018,30.9339489 C2.94783775,30.9339489 1.9693024,30.5425347 1.18647412,29.7597064 C0.403645833,28.9768782 0.0122316919,27.9983428 0.0122316919,26.8241004 L0.0122316919,21.1485953 C0.0122316919,20.7571812 0.207938763,20.365767 0.403645833,20.17006 C0.599352904,19.9743529 0.990767045,19.7786458 1.38218119,19.7786458 C1.77359533,19.7786458 2.16500947,19.9743529 2.36071654,20.17006 C2.55642361,20.365767 2.75213068,20.7571812 2.75213068,21.1485953 L2.75213068,26.8241004 C2.75213068,27.2155145 2.94783775,27.8026357 3.14354482,27.9983428 C3.33925189,28.1940499 3.73066604,28.3897569 4.31778725,28.3897569 L27.0198074,28.3897569 C27.4112216,28.3897569 27.9983428,28.1940499 28.1940499,27.9983428 C28.3897569,27.8026357 28.585464,27.4112216 28.585464,26.8241004 L28.585464,21.1485953 C28.585464,20.7571812 28.7811711,20.365767 28.9768782,20.17006 C29.1725852,19.9743529 29.5639994,19.7786458 29.9554135,19.7786458 C30.3468277,19.7786458 30.7382418,19.9743529 30.9339489,20.17006 C31.1296559,20.365767 31.325363,20.7571812 31.325363,21.1485953 L31.325363,26.8241004 C31.325363,27.9983428 30.9339489,28.9768782 30.1511206,29.7597064 C29.3682923,30.5425347 28.3897569,30.9339489 27.2155145,30.9339489 L4.12208018,30.9339489 Z" id="路径"></path>
                        <path d="M16.2559186,0.207938763 C16.4516256,0.403645833 16.6473327,0.795059975 16.6473327,1.18647412 L16.6473327,17.8215751 C16.6473327,18.0172822 16.8430398,18.0172822 16.8430398,18.0172822 L17.0387468,18.0172822 L21.7357165,13.1246054 C21.9314236,12.9288984 22.1271307,12.5374842 22.5185448,12.5374842 C22.909959,12.5374842 23.3013731,12.7331913 23.4970802,12.9288984 C23.6927872,13.1246054 23.8884943,13.5160196 23.8884943,13.9074337 C23.8884943,14.2988479 23.6927872,14.690262 23.4970802,14.8859691 L16.6473327,22.1271307 C16.4516256,22.3228378 16.0602115,22.5185448 15.6687973,22.5185448 C15.2773832,22.5185448 14.8859691,22.3228378 14.4945549,21.9314236 L7.44910038,14.8859691 C7.25339331,14.690262 7.05768624,14.2988479 7.05768624,13.9074337 C7.05768624,13.7117266 7.25339331,13.5160196 7.64480745,13.1246054 C7.84051452,12.9288984 8.23192866,12.7331913 8.6233428,12.7331913 C8.6233428,12.7331913 9.21046402,12.9288984 9.40617109,13.1246054 L13.9074337,18.0172822 L14.1031408,18.0172822 C14.2988479,18.0172822 14.2988479,17.8215751 14.2988479,17.8215751 L14.2988479,1.38218119 C14.2988479,0.990767045 14.4945549,0.599352904 14.690262,0.403645833 C14.8859691,0.207938763 15.2773832,0.0122316919 15.6687973,0.0122316919 C15.8645044,0.0122316919 16.0602115,0.0122316919 16.2559186,0.207938763 Z" id="路径" transform="translate(15.473090, 11.265388) rotate(-180.000000) translate(-15.473090, -11.265388) "></path>
                    </g>
                </g>
            </g>
        </g>
    </g>
</svg>