<?xml version="1.0" encoding="UTF-8"?>
<svg width="23px" height="22px" viewBox="0 0 23 22" version="1.1" xmlns="http://www.w3.org/2000/svg" xmlns:xlink="http://www.w3.org/1999/xlink">
    <title>链接链路</title>
    <g id="页面-1" stroke="none" stroke-width="1" fill="none" fill-rule="evenodd">
        <g id="import-wallet2" transform="translate(-232.000000, -230.000000)" fill="#F77522" fill-rule="nonzero">
            <g id="链接链路" transform="translate(232.000000, 230.000000)">
                <path d="M10.9381461,2.70106664 L1.74672197,15.3554527 C0.477644139,17.1026616 0.865247672,19.5478096 2.61245651,20.8168874 C4.35966535,22.0859652 6.80483719,21.6983617 8.07389118,19.9511529 L17.2653153,7.29679061 C18.026762,6.24847484 17.7941951,4.7813622 16.7458793,4.0199155 C15.6975636,3.2584688 14.2304509,3.49103569 13.4690042,4.53935146 L4.27760396,17.1937376 C4.0237884,17.5431841 4.10131864,18.0322137 4.45074133,18.2860293 C4.80018787,18.5398448 5.28921747,18.4623146 5.54303303,18.1128919 L14.7344571,5.45852964 C14.9882727,5.1090831 15.4773023,5.0315767 15.8267488,5.28539227 C16.1761954,5.53920784 16.2537018,6.02823743 15.9998862,6.37768397 L6.8084621,19.0320224 C6.0470154,20.0803381 4.57992661,20.312905 3.531587,19.5514583 C2.48327123,18.7900116 2.25070434,17.3229228 3.01215104,16.2745832 L12.2035751,3.62022097 C13.472653,1.87301213 15.9178248,1.4854086 17.6650098,2.75448643 C19.4122186,4.02356426 19.7998222,6.4687361 18.5307443,8.21592109 L10.2584746,19.6048543 C10.004659,19.9543008 10.0821893,20.4433304 10.4316119,20.697146 C10.7810585,20.9509615 11.2700881,20.8734313 11.5239037,20.5240086 L19.7961973,9.13507543 C21.5728824,6.68899736 21.0302422,3.26574248 18.5841641,1.48905736 C16.1380861,-0.287651607 12.714855,0.25498857 10.9381461,2.70106664 Z" id="路径"></path>
            </g>
        </g>
    </g>
</svg>