<?xml version="1.0" encoding="UTF-8"?>
<svg width="83px" height="83px" viewBox="0 0 83 83" version="1.1" xmlns="http://www.w3.org/2000/svg" xmlns:xlink="http://www.w3.org/1999/xlink">
    <title>椭圆形 2</title>
    <g id="页面-1" stroke="none" stroke-width="1" fill="none" fill-rule="evenodd">
        <g id="Set-chain-node" transform="translate(-471.000000, -406.000000)">
            <g id="椭圆形-2" transform="translate(471.000000, 406.000000)">
                <g id="下一步-01" transform="translate(21.000000, 27.000000)" fill="#043CC1" fill-rule="nonzero">
                    <path d="M34.492284,15.2719907 L1.30709878,15.2719907 C0.615740741,15.2719907 0.0108024826,14.6670525 0.0108024826,13.9756944 C0.0108024826,13.2843364 0.615740741,12.6793981 1.30709878,12.6793981 L34.492284,12.6793981 C35.183642,12.6793981 35.7885803,13.2843364 35.7885803,13.9756944 C35.7885803,14.6670525 35.183642,15.2719907 34.492284,15.2719907 Z" id="路径"></path>
                    <path d="M25.1280864,27.9756944 C24.7824074,27.9756944 24.4367284,27.8028549 24.1774691,27.6300154 C23.6589506,27.1114969 23.6589506,26.3337191 24.1774691,25.8152006 L36.0169753,13.9756944 L24.2638889,2.22260804 C23.7453704,1.70408952 23.7453704,0.926311742 24.1774691,0.407793223 C24.6095679,-0.110725295 25.4737654,-0.110725295 25.992284,0.321373443 C25.992284,0.321373443 26.0787037,0.321373443 26.0787037,0.407793223 L38.1774691,12.5065586 C39.0416667,13.3707561 39.0416667,14.7534722 38.1774691,15.53125 L26.0787037,27.6300154 C25.8194444,27.8892747 25.4737654,27.9756944 25.1280864,27.9756944 Z" id="路径"></path>
                </g>
                <circle id="椭圆形" stroke="#043CC1" stroke-width="2" cx="41" cy="41" r="40"></circle>
            </g>
        </g>
    </g>
</svg>