<?xml version="1.0" encoding="UTF-8"?>
<svg width="15px" height="15px" viewBox="0 0 15 15" version="1.1" xmlns="http://www.w3.org/2000/svg" xmlns:xlink="http://www.w3.org/1999/xlink">
    <title>语音关闭</title>
    <g id="页面-1" stroke="none" stroke-width="1" fill="none" fill-rule="evenodd">
        <g id="Thegraph-deployment失败" transform="translate(-391.000000, -404.000000)" fill="#FFFFFF" fill-rule="nonzero">
            <g id="线条" transform="translate(129.000000, 392.000000)">
                <g id="语音关闭" transform="translate(269.500000, 19.500000) scale(-1, 1) translate(-269.500000, -19.500000) translate(262.000000, 12.000000)">
                    <path d="M6.45041354,7.5 L1.21739338,2.26698149 C1.02990281,2.07949068 0.956679414,1.80621688 1.02530572,1.55009967 C1.09393203,1.29398246 1.29398208,1.09393215 1.55009896,1.02530576 C1.80621583,0.956679358 2.07948928,1.02990285 2.26697984,1.21739366 L7.5,6.45042062 L12.7330202,1.21739366 C12.9205107,1.02990285 13.1937842,0.956679358 13.449901,1.02530576 C13.7060179,1.09393215 13.906068,1.29398246 13.9746943,1.55009967 C14.0433206,1.80621688 13.9700972,2.07949068 13.7826066,2.26698149 L8.54958646,7.5 L13.7826066,12.7330354 C14.0724419,13.0228711 14.0724419,13.4927876 13.7826066,13.7826232 C13.4927713,14.0724589 13.0228555,14.0724589 12.7330202,13.7826232 L7.5,8.54959628 L2.26697984,13.7826232 C1.97714454,14.0724589 1.50722869,14.0724589 1.2173934,13.7826232 C0.927558108,13.4927876 0.927558099,13.0228711 1.21739338,12.7330354 L6.45041354,7.5 Z" id="路径"></path>
                </g>
            </g>
        </g>
    </g>
</svg>