<?xml version="1.0" encoding="UTF-8"?>
<svg width="20px" height="21px" viewBox="0 0 20 21" version="1.1" xmlns="http://www.w3.org/2000/svg" xmlns:xlink="http://www.w3.org/1999/xlink">
    <title>账户</title>
    <g id="页面-1" stroke="none" stroke-width="1" fill="none" fill-rule="evenodd">
        <g id="thgraph" transform="translate(-944.000000, -20.000000)" fill="#858B92" fill-rule="nonzero">
            <g id="账户" transform="translate(944.000000, 20.000000)">
                <path d="M19.171123,14.7346257 C18.1423478,12.2747326 16.2783295,10.3068182 13.9661319,9.2052139 C14.7097021,8.22125668 15.1375095,6.98061497 15.1375095,5.68649733 C15.1375095,2.56350267 12.7132671,0.0180481283 9.7389865,0.0180481283 C6.76470588,0.0180481283 4.34046346,2.56350267 4.34046346,5.68649733 C4.34046346,6.98061497 4.75808505,8.22125668 5.5118411,9.2052139 C3.19964349,10.296123 1.33562516,12.2747326 0.317035905,14.7239305 C-0.161701044,15.8683155 -0.0598421187,17.1838235 0.602240896,18.2319519 C1.25413802,19.2800802 2.36440031,19.9110963 3.55614973,19.9110963 L15.952381,19.9110963 C17.1441304,19.9110963 18.2543927,19.2800802 18.9062898,18.2319519 C19.5378151,17.1945187 19.6498599,15.8897059 19.171123,14.7346257 Z M9.7389865,1.73997326 C11.8169086,1.73997326 13.5077667,3.51537433 13.5077667,5.69719251 C13.5077667,7.00200535 12.8966132,8.22125668 11.867838,8.96991979 C11.2464986,9.41911765 10.5029284,9.65441176 9.7389865,9.65441176 C8.97504456,9.65441176 8.2416603,9.40842246 7.61013496,8.9592246 C6.58340414,8.22351198 5.96949929,7.00237516 5.97020565,5.69719251 C5.97020565,3.51537433 7.66106443,1.73997326 9.7389865,1.73997326 L9.7389865,1.73997326 Z M17.5210084,17.3014706 C17.1645022,17.8790107 16.5839063,18.1998663 15.9320092,18.1998663 L3.53577795,18.1998663 C2.88388083,18.1998663 2.30328495,17.8683155 1.94677871,17.3014706 C1.59027247,16.7346257 1.53934301,16.0394385 1.79399032,15.4191176 C2.71072065,13.2052139 4.44232238,11.4618984 6.57117392,10.584893 C7.52864782,11.1731283 8.60835243,11.4832888 9.72880061,11.4832888 C10.8492488,11.4832888 11.9289534,11.1731283 12.8864273,10.584893 C15.0152788,11.4618984 16.7468806,13.2052139 17.6636109,15.4191176 C17.93863,16.0501337 17.8775146,16.7346257 17.5210084,17.3014706 Z" id="形状"></path>
            </g>
        </g>
    </g>
</svg>