<?xml version="1.0" encoding="UTF-8"?>
<svg width="45px" height="46px" viewBox="0 0 45 46" version="1.1" xmlns="http://www.w3.org/2000/svg" xmlns:xlink="http://www.w3.org/1999/xlink">
    <title>编组 2备份</title>
    <g id="页面-1" stroke="none" stroke-width="1" fill="none" fill-rule="evenodd">
        <g id="Thegraph-deployment失败" transform="translate(-372.000000, -251.000000)" fill="#E70000" fill-rule="nonzero">
            <g id="编组-2备份" transform="translate(315.000000, 195.000000)">
                <g id="编组-4" transform="translate(57.000000, 56.820312)">
                    <g id="重置" transform="translate(0.000000, 3.179688)">
                        <path d="M5.83559858,22.4691547 L9.02616549,22.029812 C8.88886334,21.0293849 8.84243512,20.0185796 8.88744958,19.0097784 L5.66995634,18.8668269 C5.61636843,20.070141 5.6718087,21.275836 5.83559858,22.4691547 L5.83559858,22.4691547 Z" id="路径"></path>
                        <path d="M25.1602052,39.4790741 C27.7933108,39.4790741 30.3484573,38.9573893 32.754768,37.9284409 C35.0781317,36.9349405 37.1644256,35.5130393 38.9556418,33.7022193 C40.7468579,31.8913992 42.1533655,29.7822719 43.1361103,27.4334297 C44.1538694,25.0007832 44.6699563,22.4177224 44.6699563,19.7557483 C44.6699563,17.0938247 44.1539193,14.5107135 43.1361103,12.0780669 C42.1533655,9.72927517 40.7468579,7.62014782 38.9556418,5.80932777 C37.1644256,3.99850771 35.0781317,2.57660654 32.754768,1.58310611 C30.3484573,0.554208155 27.7933108,0.0324729371 25.1602052,0.0324729371 C20.1022841,0.0324729371 15.3069704,1.98105086 11.6576518,5.51923956 C8.0196556,9.04648629 5.89316007,13.7867283 5.66995634,18.866726 L8.85261698,19.0097784 C9.24081689,10.1743158 16.4039855,3.2531933 25.1602052,3.2531933 C34.1612757,3.2531933 41.4841534,10.6562666 41.4841534,19.7557987 C41.4841534,28.8553309 34.1612757,36.2584546 25.1602052,36.2584546 C21.6874545,36.2584546 18.3722682,35.1711659 15.5731689,33.1141768 L13.7000033,35.7192223 C17.0471115,38.1789465 21.0100125,39.4790741 25.1602052,39.4790741 Z" id="路径"></path>
                        <path d="M7.88462074,25.4806162 C8.29673458,25.4806162 8.70884842,25.3233947 9.02324091,25.0089518 L14.9345761,19.0976671 C15.5634619,18.4688317 15.5634619,17.4492117 14.9345761,16.8203259 C14.3057407,16.1914401 13.2861207,16.1914401 12.6572853,16.8203259 L6.74600056,22.7316106 C6.11711474,23.3604965 6.11711474,24.3801164 6.74600056,25.0089518 C7.06044347,25.3233947 7.47255732,25.4806162 7.88462074,25.4806162 L7.88462074,25.4806162 Z" id="路径"></path>
                        <path d="M7.54501634,25.5849431 C7.95718061,25.5849431 8.3691936,25.427772 8.68363651,25.1132787 C9.31252234,24.4844433 9.31252234,23.4648233 8.68363651,22.8359375 L2.77235179,16.9246528 C2.14356681,16.2958174 1.12394684,16.2958174 0.495061019,16.9246528 C-0.133824806,17.5535386 -0.133824806,18.5731081 0.495061019,19.201994 L6.40639617,25.1132787 C6.72073823,25.4276712 7.13295292,25.5849431 7.54501634,25.5849431 L7.54501634,25.5849431 Z" id="路径"></path>
                    </g>
                </g>
            </g>
        </g>
    </g>
</svg>