<?xml version="1.0" encoding="UTF-8"?>
<svg width="9px" height="18px" viewBox="0 0 9 18" version="1.1" xmlns="http://www.w3.org/2000/svg" xmlns:xlink="http://www.w3.org/1999/xlink">
    <title>返回</title>
    <g id="页面-1" stroke="none" stroke-width="1" fill="none" fill-rule="evenodd">
        <g id="Application-details--切片" transform="translate(-980.000000, -218.000000)" fill="#FFFFFF" fill-rule="nonzero">
            <g id="Revenue-information" transform="translate(24.000000, 134.000000)">
                <g id="Receive-Benefits" transform="translate(796.000000, 63.500000)">
                    <g id="返回" transform="translate(164.500000, 30.000000) rotate(-180.000000) translate(-164.500000, -30.000000) translate(160.000000, 21.500000)">
                        <path d="M8.8229657,15.9577823 L1.39331024,8.50123157 L8.8229657,1.04468081 C9.05469449,0.812113172 9.05798306,0.420636932 8.81942564,0.181235342 C8.57920459,-0.0598553075 8.19567884,-0.0597776533 7.95907522,0.177682468 L0.177038789,7.9878704 C0.0424391571,8.12295728 -0.0150916271,8.31164788 0.00707726927,8.49299979 C-0.0212818947,8.67807929 0.0356298779,8.87265254 0.177038789,9.01457335 L7.95907522,16.8247807 C8.19080401,17.0573483 8.58086822,17.0606488 8.81942564,16.8212278 C9.05964669,16.5801372 9.05954998,16.1952231 8.8229657,15.9577823 L8.8229657,15.9577823 Z" id="路径"></path>
                    </g>
                </g>
            </g>
        </g>
    </g>
</svg>