<?xml version="1.0" encoding="UTF-8"?>
<svg width="20px" height="20px" viewBox="0 0 20 20" version="1.1" xmlns="http://www.w3.org/2000/svg" xmlns:xlink="http://www.w3.org/1999/xlink">
    <title>设置</title>
    <g id="页面-1" stroke="none" stroke-width="1" fill="none" fill-rule="evenodd">
        <g id="thgraph" transform="translate(-984.000000, -20.000000)" fill="#858B92" fill-rule="nonzero">
            <g id="图标" transform="translate(944.000000, 20.000000)">
                <g id="设置" transform="translate(40.000000, 0.000000)">
                    <path d="M19.2015665,6.18253912 C19.4683873,6.84006175 19.3159183,7.60717147 18.820394,8.11857796 C17.8674626,9.1048619 17.8674626,10.6756104 18.820394,11.6984234 C19.3159183,12.2098298 19.4683873,12.9769396 19.2015665,13.6344622 C18.8585112,14.47463 18.3629869,15.2782688 17.7912281,15.9723204 C17.3338211,16.5202559 16.571476,16.7759592 15.8853654,16.629843 C15.1992549,16.4837269 14.5131443,16.593314 13.9032682,16.9220753 C13.2933922,17.2508366 12.8741024,17.7987722 12.6453989,18.4197657 C12.4166954,19.1138174 11.8068193,19.5886949 11.0825915,19.698282 C10.6251844,19.734811 10.1296601,19.77134 9.6722531,19.77134 C9.21484606,19.77134 8.71932176,19.734811 8.26191472,19.6617529 C7.5376869,19.5521658 6.92781084,19.0772884 6.69910732,18.3832367 C6.27981753,17.0681915 4.86947915,16.3010817 3.45914076,16.593314 C2.73491295,16.7394301 2.01068513,16.4837269 1.55327808,15.9357914 C0.98151928,15.2052107 0.485994983,14.438101 0.142939701,13.5979332 C-0.123881074,12.9404105 0.0285879402,12.1733008 0.524112237,11.6618943 C1.47704358,10.6756104 1.47704358,9.1048619 0.524112237,8.08204893 C0.0285879402,7.57064244 -0.123881074,6.80353271 0.142939701,6.14601009 C0.485994983,5.30584229 0.98151928,4.50220353 1.55327808,3.80815187 C2.01068513,3.26021635 2.7730302,3.0045131 3.49725802,3.15062924 C4.18336858,3.29674538 4.86947915,3.18715828 5.4793552,2.85839696 C6.08923126,2.52963565 6.50852105,1.98170013 6.73722457,1.36070654 C6.96592809,0.666654883 7.57580415,0.191777432 8.30003197,0.0821903281 C9.21484606,-0.027396776 10.1677774,-0.027396776 11.1207087,0.0821903281 C11.8449366,0.191777432 12.4548126,0.666654883 12.6835161,1.36070654 C12.8741024,1.98170013 13.3315094,2.52963565 13.9413855,2.85839696 C14.5512616,3.18715828 15.2373721,3.29674538 15.9234827,3.15062924 C16.6477105,3.0045131 17.4100556,3.26021635 17.8293454,3.80815187 C18.3629869,4.5752616 18.8585112,5.34237132 19.2015665,6.18253912 L19.2015665,6.18253912 Z M17.7912281,6.73047464 C17.4862901,6.03642298 17.0670003,5.34237132 16.571476,4.75790677 C16.4952415,4.64831966 16.3427725,4.61179063 16.1903035,4.64831966 C15.1611376,4.86749387 14.0557373,4.72137773 13.1409232,4.20997125 C12.1879918,3.69856476 11.5018813,2.85839696 11.1969432,1.87211303 C11.158826,1.72599689 11.0444742,1.61640979 10.8920052,1.61640979 C10.0915429,1.50682268 9.29108056,1.50682268 8.49061824,1.61640979 C8.33814922,1.65293882 8.22379746,1.72599689 8.18568021,1.87211303 C7.88074218,2.85839696 7.19463162,3.69856476 6.24170028,4.20997125 C5.32688619,4.72137773 4.22148584,4.86749387 3.15420273,4.64831966 C3.00173372,4.61179063 2.84926471,4.6848487 2.7730302,4.75790677 C2.2775059,5.37890036 1.85821611,6.03642298 1.55327808,6.73047464 C1.51516083,6.87659078 1.51516083,7.02270692 1.62951259,7.13229402 C3.11608548,8.70304252 3.11608548,11.1139588 1.62951259,12.6847073 C1.51516083,12.7942944 1.51516083,12.9404105 1.55327808,13.0499976 C1.85821611,13.7805783 2.2775059,14.438101 2.73491295,15.0225655 C2.81114745,15.1321526 3.00173372,15.1686817 3.11608548,15.1686817 C5.28876894,14.6938042 7.46145239,15.9357914 8.14756295,17.9448883 C8.18568021,18.0910044 8.30003197,18.1640625 8.45250098,18.2005915 C8.83367352,18.2371206 9.25296331,18.2736496 9.63413584,18.2736496 C10.0534256,18.2736496 10.4345982,18.2371206 10.853888,18.2005915 C11.006357,18.1640625 11.1207087,18.0910044 11.158826,17.9448883 C11.463764,16.9586044 12.1498746,16.1184366 13.1028059,15.6070301 C14.01762,15.0956236 15.1230204,14.9495074 16.1903035,15.1686817 C16.3427725,15.2052107 16.4952415,15.1321526 16.571476,15.0590946 C17.0670003,14.438101 17.4862901,13.7805783 17.7912281,13.0865267 C17.8293454,12.9769396 17.8293454,12.7942944 17.7149936,12.6847073 C16.2284207,11.1139588 16.2284207,8.70304252 17.7149936,7.13229402 C17.8293454,7.02270692 17.8293454,6.87659078 17.7912281,6.73047464 Z M9.51978408,13.5614041 C7.42333514,13.5614041 5.70805873,11.9175976 5.70805873,9.90850066 C5.70805873,7.89940375 7.42333514,6.25559719 9.51978408,6.25559719 C11.616233,6.25559719 13.3315094,7.89940375 13.3315094,9.90850066 C13.3315094,11.9175976 11.6543503,13.5614041 9.51978408,13.5614041 Z M9.51978408,12.1002427 C10.7776535,12.1002427 11.8068193,11.1139588 11.8068193,9.90850066 C11.8068193,8.70304252 10.7776535,7.71675858 9.51978408,7.71675858 C8.26191472,7.71675858 7.23274887,8.70304252 7.23274887,9.90850066 C7.23274887,11.1139588 8.26191472,12.1002427 9.51978408,12.1002427 Z" id="形状"></path>
                </g>
            </g>
        </g>
    </g>
</svg>