<?xml version="1.0" encoding="UTF-8"?>
<svg width="20px" height="21px" viewBox="0 0 20 21" version="1.1" xmlns="http://www.w3.org/2000/svg" xmlns:xlink="http://www.w3.org/1999/xlink">
    <title>编组</title>
    <g id="页面-1" stroke="none" stroke-width="1" fill="none" fill-rule="evenodd">
        <g id="Withdraw" transform="translate(-571.000000, -227.000000)">
            <g id="矩形-2" transform="translate(0.000000, -1.000000)">
                <g id="弹出框" transform="translate(553.000000, 130.000000)">
                    <g id="编组-9" transform="translate(18.000000, 98.000000)">
                        <g id="编组" transform="translate(0.000000, 0.500000)">
                            <g id="编组-10" transform="translate(3.000000, 3.085918)">
                                <path d="M4.78585106,0.271481816 C2.00499161,1.1979751 0,3.82188301 0,6.91408181 C0,10.7800751 3.13400675,13.9140818 7,13.9140818 C10.8659932,13.9140818 14,10.7800751 14,6.91408181 C14,3.4223117 11.4433632,0.527676111 8.09991468,-1.11910481e-13" id="路径" stroke="#63A0FA" stroke-linecap="round"></path>
                                <path d="M7.26105903,3.26958212 C7.32632379,3.33484687 7.39158854,3.46537639 7.39158854,3.5959059 L7.39158854,9.14341027 C7.39158854,9.20867503 7.4568533,9.20867503 7.4568533,9.20867503 L7.52211806,9.20867503 L9.08847223,7.5770561 C9.15373699,7.51179134 9.21900175,7.38126183 9.34953126,7.38126183 C9.48006078,7.38126183 9.61059029,7.44652658 9.67585505,7.51179134 C9.74111981,7.5770561 9.80638456,7.70758561 9.80638456,7.83811513 C9.80638456,7.96864464 9.74111981,8.09917416 9.67585505,8.16443891 L7.39158854,10.5792349 C7.32632379,10.6444997 7.19579427,10.7097644 7.06526476,10.7097644 C6.93473524,10.7097644 6.80420573,10.6444997 6.67367621,10.5139702 L4.32414495,8.16443891 C4.25888019,8.09917416 4.19361544,7.96864464 4.19361544,7.83811513 C4.19361544,7.77285037 4.25888019,7.70758561 4.38940971,7.5770561 C4.45467447,7.51179134 4.58520398,7.44652658 4.71573349,7.44652658 C4.71573349,7.44652658 4.91152777,7.51179134 4.97679252,7.5770561 L6.47788194,9.20867503 L6.5431467,9.20867503 C6.60841146,9.20867503 6.60841146,9.14341027 6.60841146,9.14341027 L6.60841146,3.66117066 C6.60841146,3.53064115 6.67367621,3.40011163 6.73894097,3.33484687 C6.80420573,3.26958212 6.93473524,3.20431736 7.06526476,3.20431736 C7.13052951,3.20431736 7.19579427,3.20431736 7.26105903,3.26958212 Z" id="路径" fill="#63A0FA" fill-rule="nonzero" transform="translate(7.000000, 6.957041) rotate(-180.000000) translate(-7.000000, -6.957041) "></path>
                            </g>
                        </g>
                    </g>
                </g>
            </g>
        </g>
    </g>
</svg>