<?xml version="1.0" encoding="UTF-8"?>
<svg width="22px" height="22px" viewBox="0 0 22 22" version="1.1" xmlns="http://www.w3.org/2000/svg" xmlns:xlink="http://www.w3.org/1999/xlink">
    <title>编组 3</title>
    <g id="页面-1" stroke="none" stroke-width="1" fill="none" fill-rule="evenodd">
        <g id="Thegraph-deployment失败" transform="translate(-153.000000, -401.000000)" fill="#FFFFFF" fill-rule="nonzero">
            <g id="线条" transform="translate(129.000000, 392.000000)">
                <g id="编组-3" transform="translate(23.500000, 0.000000)">
                    <path d="M21.5970458,14.8792581 L9.54690278,27.0356148 C9.52961364,27.0549936 9.5115561,27.0743725 9.49311436,27.0929762 C8.95074704,27.6356746 8.07604636,27.6356746 7.53367904,27.0929762 C7.5152373,27.0743725 7.49756396,27.0542185 7.48027482,27.0356148 L1.40333591,20.9053073 C0.865554695,20.359457 0.865554695,19.4780025 1.40333591,18.9321521 C1.94443425,18.389648 2.81821507,18.389648 3.35931341,18.9321521 L8.5133967,24.1314993 L19.6410683,12.9068781 C20.1821666,12.364374 21.0559474,12.364374 21.5970458,12.9068781 C22.1343181,13.4526378 22.1343181,14.3334984 21.5970458,14.8792581 Z" id="路径"></path>
                </g>
            </g>
        </g>
    </g>
</svg>