<?xml version="1.0" standalone="no"?><!DOCTYPE svg PUBLIC "-//W3C//DTD SVG 1.1//EN" "http://www.w3.org/Graphics/SVG/1.1/DTD/svg11.dtd"><svg t="1626839274343" class="icon" viewBox="0 0 4096 1024" version="1.1" xmlns="http://www.w3.org/2000/svg" p-id="1709" width="128" height="32" xmlns:xlink="http://www.w3.org/1999/xlink"><defs><style type="text/css"></style></defs><path d="M770.56 650.112c-20.192 0-36.576 16.384-36.576 36.576v286.816a513.28 513.28 0 0 0 271.168-323.392h-234.56z" fill="#FF0000" p-id="1710"></path><path d="M1024 503.84C1019.648 224.832 792.096 0 512.032 0 229.248 0 0 229.216 0 512s229.248 512 512.032 512c25.728 0 51.008-1.92 75.712-5.568V672.064a21.952 21.952 0 0 0-21.952-21.952H468.8a73.152 73.152 0 1 1 0-146.272H1024z" fill="#006CFF" p-id="1711"></path><path d="M2781.248 673.28a4 4 0 0 1 6.88 0.448l30.848 61.984c0.672 1.344 2.08 2.208 3.584 2.208h86.048a4.032 4.032 0 0 0 3.552-5.824l-71.04-142.656a4.032 4.032 0 0 1 0.32-4.096l74.336-108.32a4.032 4.032 0 0 0 0.672-1.728l9.312-68.544h-94.976l-9.44 69.472a2.016 2.016 0 0 1-0.352 1.152l-19.008 27.744a1.344 1.344 0 0 1-2.272-0.16l-12.896-25.856a4 4 0 0 0-3.584-2.24h-86.08a4.032 4.032 0 0 0-3.584 5.824l50.496 102.496c0.64 1.312 0.512 2.88-0.32 4.064l-94.752 138.56a4 4 0 0 1-6.048 0.64l-53.632-49.952a4.032 4.032 0 0 1 0.352-6.208l54.08-39.424a4.032 4.032 0 0 0 1.6-2.688l7.424-54.464a4 4 0 0 1 3.968-3.456h17.376a4 4 0 0 0 3.968-3.488l7.04-51.552a4.032 4.032 0 0 0-4-4.576h-15.072a4.032 4.032 0 0 1-3.968-4.64l1.664-10.816a4.032 4.032 0 0 0-3.936-4.64h-75.008a4 4 0 0 0-3.968 3.424l-2.08 13.28a4 4 0 0 1-3.936 3.392H2523.52a4.032 4.032 0 0 1-3.968-4.64l1.696-10.816a4.032 4.032 0 0 0-3.968-4.64h-75.008a4 4 0 0 0-3.968 3.424l-2.048 13.28a4 4 0 0 1-3.968 3.392h-16.192a4 4 0 0 0-3.968 3.456l-7.04 51.584a4 4 0 0 0 3.968 4.576h13.952c2.432 0 4.288 2.144 3.968 4.576l-7.232 52.96c-0.16 1.28 0.32 2.592 1.28 3.52l41.728 38.528a4.032 4.032 0 0 1-0.352 6.208l-71.744 52.608c-3.136 2.272-1.504 7.264 2.368 7.264h105.152a4 4 0 0 0 2.336-0.768l16.32-11.744a4 4 0 0 1 5.024 0.32l12.064 11.136a4 4 0 0 0 2.72 1.056h198.176c1.344 0 2.56-0.64 3.328-1.728l43.072-62.944z m-214.688-72.64a4.032 4.032 0 0 1-1.6 2.752l-29.056 21.472a4 4 0 0 1-5.12-0.288l-22.272-20.8a4.032 4.032 0 0 1-1.28-3.456l3.072-24.544a4.032 4.032 0 0 1 3.968-3.52h51.296c2.4 0 4.288 2.112 3.968 4.512l-2.976 23.872z" fill="#FDFEFF" p-id="1712"></path><path d="M2931.072 393.408a3.84 3.84 0 0 0-0.832 0.064H2828.8a3.872 3.872 0 0 0-0.8-0.064h-15.104c-1.696 0-3.2 1.056-3.776 2.656l-19.328 54.272a4 4 0 0 1-3.776 2.688H2699.52a4.032 4.032 0 0 1-3.776-5.376l51.104-144.96a4.032 4.032 0 0 0-0.704-3.904l-4.992-6.08a4.032 4.032 0 0 1 3.072-6.624h98.304c2.784 0 4.704 2.752 3.776 5.376l-13.056 36.96a4.032 4.032 0 0 0 3.776 5.376h112.192c2.432 0 4.32 2.144 3.968 4.576l-7.04 51.552a4 4 0 0 1-3.936 3.488h-11.136zM2458.944 417.248c1.056 0 1.696 1.184 1.12 2.08l-40.352 63.264a4.032 4.032 0 0 0 3.36 6.208h61.76a4 4 0 0 0 3.36-1.856l26.112-40.672c0.768-1.216 2.656-0.512 2.432 0.928l-5.312 36.992a4.032 4.032 0 0 0 3.936 4.608h75.04a4 4 0 0 0 3.968-3.456l5.024-34.944c0.192-1.376 2.048-1.6 2.56-0.32l14.624 36.192c0.64 1.536 2.112 2.528 3.744 2.528h62.592c2.848 0 4.8-2.88 3.712-5.536l-25.792-64.16a1.344 1.344 0 0 1 1.28-1.856h33.28a4 4 0 0 0 3.968-3.424l7.552-51.584a4.032 4.032 0 0 0-3.968-4.608h-85.728a4 4 0 0 1-3.968-4.576l8.704-62.4a4.032 4.032 0 0 0-3.968-4.576h-85.984a4.032 4.032 0 0 0-3.648 5.728l7.52 16.416c0.32 0.704 0.448 1.504 0.32 2.24l-6.208 43.712a4 4 0 0 1-3.968 3.456h-88.064a4 4 0 0 0-3.968 3.424l-7.552 51.584a4.032 4.032 0 0 0 3.968 4.608h28.544z" fill="#FDFEFF" p-id="1713"></path><path d="M2647.2 298.016a4 4 0 0 0-3.712 2.56l-15.584 39.648a4.032 4.032 0 0 0 3.712 5.472h62.624a4 4 0 0 0 3.744-2.56l15.584-39.616a4.032 4.032 0 0 0-3.744-5.504h-62.624zM2514.432 345.696a4.032 4.032 0 0 0 3.968-4.448l-4.16-39.616a4 4 0 0 0-3.968-3.616H2447.04a4.032 4.032 0 0 0-3.968 4.448l4.16 39.648c0.192 2.048 1.92 3.584 3.968 3.584h63.2zM1765.088 298.016c2.432 0 4.288 2.144 3.968 4.576l-7.04 51.552a4 4 0 0 1-3.968 3.488h-130.656a4 4 0 0 0-3.936 3.296l-14.656 79.04h-130.592l14.368-77.568a4.032 4.032 0 0 0-3.936-4.768h-126.208a4.032 4.032 0 0 1-3.968-4.576l7.04-51.552a4 4 0 0 1 3.968-3.488h395.616zM1785.024 453.024h-156.288v0.224H1452.48v-0.224h-145.536a4 4 0 0 0-3.968 3.424l-7.584 51.584a4 4 0 0 0 3.968 4.608h116.704c3.168 0 5.088 3.52 3.328 6.208l-138.72 212.832a4.032 4.032 0 0 0 3.328 6.24h89.792a4 4 0 0 0 3.36-1.824l144.48-221.632a4 4 0 0 1 3.36-1.824h25.056c1.664 0 3.168 1.024 3.744 2.592l82.432 220.096c0.576 1.568 2.08 2.592 3.744 2.592h90.784a4.032 4.032 0 0 0 3.776-5.44l-80.32-214.4a4.032 4.032 0 0 1 3.776-5.44h119.488a4 4 0 0 0 3.968-3.456l7.552-51.552a4.032 4.032 0 0 0-3.968-4.608zM2339.968 298.016c2.432 0 4.288 2.144 3.968 4.576l-7.04 51.552a4 4 0 0 1-3.968 3.488h-130.656a4 4 0 0 0-3.936 3.296l-14.656 79.04H2053.12l14.4-77.568a4.032 4.032 0 0 0-3.968-4.768h-126.208a4.032 4.032 0 0 1-3.968-4.576l7.04-51.552a4 4 0 0 1 3.968-3.488h395.616zM2035.424 453.024h-153.6a4 4 0 0 0-3.968 3.424l-7.552 51.584a4.032 4.032 0 0 0 3.936 4.608h116.704c3.2 0 5.12 3.52 3.36 6.208l-138.752 212.832a4.032 4.032 0 0 0 3.36 6.24h89.792a4 4 0 0 0 3.328-1.824l144.48-221.632a4 4 0 0 1 3.36-1.824h25.056c1.664 0 3.2 1.024 3.744 2.592l82.432 220.096c0.576 1.568 2.08 2.592 3.744 2.592h90.816a4.032 4.032 0 0 0 3.744-5.44l-80.32-214.4a4.032 4.032 0 0 1 3.776-5.44h119.488a4 4 0 0 0 3.968-3.456l7.552-51.552a4.032 4.032 0 0 0-3.968-4.608h-148.192v0.224h-176.288v-0.224zM3281.76 450.56a4.224 4.224 0 0 1 0.384-1.28l26.176-53.056h76.48l-28.576 59.936h24.192a4.032 4.032 0 0 0 3.968-3.424l6.464-42.72a4 4 0 0 1 3.968-3.424h61.248c2.432 0 4.32 2.144 3.968 4.576l-5.6 40.416a4.032 4.032 0 0 0 3.968 4.576h31.328c2.432 0 4.32 2.144 3.968 4.576l-6.368 45.312a4.032 4.032 0 0 1-3.968 3.456h-39.936a4 4 0 0 0-3.968 3.424l-4.864 32.064a1.312 1.312 0 0 0 1.312 1.536h48.832c2.432 0 4.32 2.144 3.968 4.576l-7.008 50.944a4.032 4.032 0 0 1-3.968 3.456h-50.336a1.344 1.344 0 0 0-1.344 1.152l-6.848 49.984a4.032 4.032 0 0 1-3.968 3.456h-81.28a4.032 4.032 0 0 1-3.968-4.576l6.656-48.48a1.312 1.312 0 0 0-1.312-1.536h-76.352a4 4 0 0 1-3.968-4.576l7.008-50.944a4 4 0 0 1 3.968-3.456h77.856c0.64 0 1.216-0.48 1.312-1.152l4.736-31.232a4 4 0 0 0-3.936-4.64h-67.616a4 4 0 0 1-3.968-4.576l7.392-54.4zM3392.448 382.944a3.904 3.904 0 0 1 1.312-0.224h115.2a4 4 0 0 0 3.968-3.456l7.04-51.584a4.032 4.032 0 0 0-3.968-4.576h-96.032l14.72-30.624a4.032 4.032 0 0 0-3.616-5.76h-86.912a4.032 4.032 0 0 0-3.232 6.4l9.472 12.96a4.032 4.032 0 0 1 0.352 4.16l-5.28 10.656a4.064 4.064 0 0 1-3.584 2.24h-46.528a4 4 0 0 0-3.968 3.456l-7.04 51.584a4.032 4.032 0 0 0 3.968 4.576h20.192c0.48 0 0.928 0.064 1.344 0.192h82.592z" fill="#FDFEFF" p-id="1714"></path><path d="M3265.728 726.624a3.904 3.904 0 0 1-1.44-0.288l-43.808-17.12a4.032 4.032 0 0 0-5.152 2.144l-5.536 12.832a4 4 0 0 1-3.68 2.432h-85.28a4.032 4.032 0 0 1-3.584-5.792l26.848-54.496a4.064 4.064 0 0 0 0.384-1.216l24.256-176.16a4.032 4.032 0 0 0-3.968-4.576h-7.68a4.032 4.032 0 0 1-3.968-4.576l5.76-41.504a4 4 0 0 1 3.968-3.488h96.896c2.432 0 4.32 2.176 3.968 4.576l-28.256 201.6a4.064 4.064 0 0 0 2.816 4.416l70.528 21.44a3.84 3.84 0 0 0 1.152 0.16h157.92c2.432 0 4.288 2.144 3.968 4.576l-7.04 51.552a4 4 0 0 1-3.968 3.488h-195.104zM3005.92 518.272a4 4 0 0 0 3.968-3.456l4.48-31.488a4 4 0 0 0-3.968-4.576h-15.744a4.032 4.032 0 0 1-3.968-4.608l7.584-52.8a4 4 0 0 1 3.968-3.456h141.248c2.464 0 4.32 2.176 3.968 4.576l-7.584 52.832a4 4 0 0 1-3.968 3.456h-20.544a4 4 0 0 0-3.968 3.456l-4.48 31.488a4.032 4.032 0 0 0 3.968 4.576h27.008c2.432 0 4.32 2.176 3.968 4.576l-7.616 54.72a4 4 0 0 1-3.968 3.456h-29.248a4 4 0 0 0-3.968 3.52l-8.8 66.048a4 4 0 0 0 4.864 4.48l21.856-4.96a4 4 0 0 1 4.832 4.48l-6.912 49.216a4.032 4.032 0 0 1-3.104 3.36l-124.768 28.224a4 4 0 0 1-4.832-4.48l19.84-145.28a4.032 4.032 0 0 0-4-4.608h-27.648a4.032 4.032 0 0 1-3.968-4.576l7.616-54.72a4 4 0 0 1 3.968-3.456h29.92zM3116.96 286.72c2.88 0 4.832 3.008 3.68 5.664l-14.4 32.64a4.032 4.032 0 0 0 3.68 5.632h49.824c2.432 0 4.32 2.176 3.936 4.608l-6.912 47.168a4 4 0 0 1-3.968 3.424h-70.144c-1.6 0-3.072 0.96-3.68 2.464l-7.296 17.088a4 4 0 0 1-3.68 2.432h-73.696a4.032 4.032 0 0 1-3.68-5.664l41.504-94.304a4.032 4.032 0 0 0-0.64-4.256l-8.864-10.24a4.032 4.032 0 0 1 3.04-6.656h91.296zM3260.544 302.4c2.144 0 3.904 1.696 4 3.84l5.216 101.76a4 4 0 0 1-4 4.224H3187.52a4 4 0 0 1-4-3.776l-5.76-101.76a4 4 0 0 1 3.968-4.288h78.816z" fill="#FDFEFF" p-id="1715"></path></svg>